<svg xmlns="http://www.w3.org/2000/svg" viewBox="0 0 512 512" role="img" aria-labelledby="title desc">
  <title id="title">Trnscrbr icon</title>
  <desc id="desc">A compact glassy blue voice button with a subtle teal glow.</desc>
  <defs>
    <radialGradient id="glow" cx="50%" cy="46%" r="50%">
      <stop offset="0%" stop-color="#36d5d3" stop-opacity="0.42"/>
      <stop offset="56%" stop-color="#64e6c8" stop-opacity="0.14"/>
      <stop offset="100%" stop-color="#36d5d3" stop-opacity="0"/>
    </radialGradient>
    <linearGradient id="glass" x1="140" x2="372" y1="112" y2="400" gradientUnits="userSpaceOnUse">
      <stop offset="0%" stop-color="#2fe4d3" stop-opacity="0.92"/>
      <stop offset="52%" stop-color="#227c9d" stop-opacity="0.88"/>
      <stop offset="100%" stop-color="#7c5cff" stop-opacity="0.86"/>
    </linearGradient>
    <linearGradient id="shine" x1="176" x2="292" y1="150" y2="256" gradientUnits="userSpaceOnUse">
      <stop offset="0%" stop-color="#ffffff" stop-opacity="0.82"/>
      <stop offset="100%" stop-color="#ffffff" stop-opacity="0"/>
    </linearGradient>
    <filter id="softShadow" x="-30%" y="-30%" width="160%" height="160%">
      <feDropShadow dx="0" dy="18" stdDeviation="24" flood-color="#12343f" flood-opacity="0.28"/>
    </filter>
  </defs>
  <rect width="512" height="512" fill="none"/>
  <circle cx="256" cy="256" r="182" fill="url(#glow)"/>
  <circle cx="256" cy="256" r="140" fill="url(#glass)" filter="url(#softShadow)"/>
  <circle cx="256" cy="256" r="138" fill="none" stroke="#ffffff" stroke-opacity="0.48" stroke-width="10"/>
  <path d="M374 246a126 126 0 0 1-206 97" fill="none" stroke="#0f2330" stroke-opacity="0.22" stroke-width="16" stroke-linecap="round"/>
  <ellipse cx="218" cy="178" rx="42" ry="28" fill="url(#shine)" transform="rotate(-20 218 178)"/>
  <g fill="#f4ffff" opacity="0.95">
    <rect x="194" y="230" width="16" height="60" rx="8"/>
    <rect x="224" y="198" width="16" height="124" rx="8"/>
    <rect x="254" y="222" width="16" height="76" rx="8"/>
    <rect x="284" y="182" width="16" height="156" rx="8"/>
    <rect x="314" y="238" width="16" height="44" rx="8"/>
  </g>
</svg>
